<?xml version="1.0" standalone="no"?>
<!DOCTYPE svg PUBLIC "-//W3C//DTD SVG 20010904//EN"
 "http://www.w3.org/TR/2001/REC-SVG-20010904/DTD/svg10.dtd">
<svg version="1.0" xmlns="http://www.w3.org/2000/svg"
 width="720.000000pt" height="180.000000pt" viewBox="0 0 720.000000 180.000000"
 preserveAspectRatio="xMidYMid meet">

<g transform="translate(0.000000,180.000000) scale(0.100000,-0.100000)"
fill="#000000" stroke="none">
<path d="M3683 1575 c-171 -31 -322 -105 -436 -214 -63 -61 -86 -91 -120 -160
-42 -85 -42 -87 -42 -196 0 -98 3 -116 26 -166 15 -31 44 -75 65 -99 37 -41
124 -107 124 -94 0 3 -22 30 -49 60 -64 70 -84 129 -80 232 3 63 10 90 37 144
62 126 210 235 381 279 83 22 282 30 381 16 l56 -8 46 84 c26 45 48 89 50 97
7 35 -293 52 -439 25z"/>
<path d="M3579 1225 c-123 -30 -230 -100 -285 -187 -32 -50 -55 -140 -49 -192
8 -61 51 -141 94 -176 51 -40 60 -38 23 4 -112 127 -29 313 167 374 43 13 90
17 198 16 l142 0 40 74 c23 42 41 79 41 82 0 23 -281 27 -371 5z"/>
<path d="M3609 949 c-68 -7 -150 -42 -181 -76 -48 -53 -53 -116 -15 -190 19
-36 45 -58 32 -27 -4 10 -10 40 -12 66 -5 44 -3 50 29 82 46 46 101 59 215 54
l93 -5 20 34 c27 46 26 51 -12 57 -73 11 -106 12 -169 5z"/>
<path d="M2840 456 c-6 -8 -10 -25 -8 -38 2 -19 9 -23 38 -23 29 0 36 4 38 23
4 28 -14 52 -38 52 -10 0 -23 -7 -30 -14z"/>
<path d="M4200 450 c-17 -33 -3 -60 30 -60 31 0 51 24 42 50 -12 35 -56 40
-72 10z"/>
<path d="M2230 290 l0 -170 35 0 35 0 0 54 c0 61 15 112 36 120 8 3 25 1 39
-4 27 -10 28 -15 25 -112 l-1 -58 40 0 41 0 0 70 c0 125 -41 177 -132 167
l-48 -6 0 54 0 55 -35 0 -35 0 0 -170z"/>
<path d="M2960 290 l0 -170 40 0 40 0 0 154 c0 85 -3 161 -6 170 -4 10 -18 16
-40 16 l-34 0 0 -170z"/>
<path d="M3397 453 c-4 -3 -7 -80 -7 -170 l0 -163 40 0 40 0 0 170 0 170 -33
0 c-19 0 -37 -3 -40 -7z"/>
<path d="M2572 344 c-29 -20 -52 -66 -52 -104 0 -38 23 -84 52 -104 27 -19 90
-21 119 -4 17 10 23 10 26 1 3 -7 20 -13 39 -13 l34 0 -6 63 c-8 87 -28 139
-63 160 -37 22 -119 22 -149 1z m106 -60 c15 -10 22 -25 22 -49 0 -28 -5 -35
-31 -44 -54 -19 -90 18 -70 72 15 38 44 46 79 21z"/>
<path d="M2830 241 l0 -121 40 0 41 0 -3 118 -3 117 -37 3 -38 3 0 -120z"/>
<path d="M3134 324 l-34 -35 0 -135 0 -134 35 0 35 0 0 62 c0 48 3 59 12 50 7
-7 31 -12 54 -12 109 0 158 138 74 213 -25 23 -39 27 -86 27 -52 0 -59 -3 -90
-36z m134 -47 c23 -18 10 -70 -21 -85 -59 -28 -103 42 -56 89 20 20 48 19 77
-4z"/>
<path d="M3524 346 c-3 -7 -3 -33 0 -57 2 -24 5 -57 5 -72 1 -19 13 -41 35
-63 29 -29 41 -34 81 -34 53 0 97 22 116 57 7 12 13 58 13 100 l1 78 -37 3
-38 3 0 -74 c0 -48 -4 -78 -12 -84 -28 -21 -49 -22 -68 -3 -16 16 -20 34 -20
90 l0 70 -35 0 c-21 0 -38 -6 -41 -14z"/>
<path d="M3864 348 c-29 -14 -46 -52 -35 -81 14 -36 28 -44 104 -61 15 -4 27
-11 27 -18 0 -8 -21 -9 -70 -4 l-70 6 0 -35 0 -35 75 0 c112 0 156 29 139 93
-6 25 -55 57 -87 57 -23 0 -47 11 -47 22 0 6 24 7 63 3 60 -7 63 -6 64 16 1
13 -3 29 -9 36 -13 16 -123 17 -154 1z"/>
<path d="M4200 240 l0 -120 35 0 35 0 0 120 0 120 -35 0 -35 0 0 -120z"/>
<path d="M4381 344 c-34 -24 -51 -75 -51 -154 l0 -70 35 0 35 0 0 60 c0 94 24
129 75 110 27 -10 29 -22 25 -117 l-2 -53 41 0 41 0 0 70 c0 86 -18 133 -59
154 -39 21 -110 20 -140 0z"/>
<path d="M4662 332 c-18 -17 -33 -44 -37 -65 -19 -99 49 -162 160 -147 32 4
41 9 43 28 6 41 -3 51 -40 43 -49 -10 -78 -2 -90 24 -9 19 -7 30 7 51 16 24
21 26 71 22 51 -4 54 -3 54 18 0 48 -9 54 -75 54 -55 0 -67 -3 -93 -28z"/>
<path d="M4902 188 c-17 -17 -15 -57 3 -64 30 -12 65 5 65 31 0 36 -44 57 -68
33z"/>
</g>
</svg>
